<svg xmlns="http://www.w3.org/2000/svg" width="20" height="20" viewBox="0 0 20 20">
  <defs>
    <style>
      .cls-1 {
        fill-rule: evenodd;
      }
    </style>
  </defs>
  <path id="Forma_1" data-name="Forma 1" class="cls-1" d="M736.092,28.241V24.828L733,23.775l-1.907-2.763-3.089,1.059-3.089-1.059-1.907,2.763-3.09,1.053v3.412L718.011,31l1.908,2.761v3.412l3.09,1.053,1.907,2.764,3.089-1.059,3.09,1.059L733,38.228l3.09-1.053V33.762L738,31Zm-11.569,1.788A1.874,1.874,0,0,1,724,28.7V28.221a1.9,1.9,0,0,1,.516-1.339,1.862,1.862,0,0,1,1.423-.531,1.837,1.837,0,0,1,1.417.531,1.879,1.879,0,0,1,.488,1.339V28.7A1.981,1.981,0,0,1,724.523,30.029Zm1.755,4.823-0.929-.491,4.206-7.072,0.929,0.491Zm5.684-1.063a1.876,1.876,0,0,1-.491,1.339,1.838,1.838,0,0,1-1.409.525,1.9,1.9,0,0,1-1.434-.528,1.858,1.858,0,0,1-.51-1.336V33.311a1.923,1.923,0,1,1,3.844,0v0.479h0Zm-5.546-4.576a0.8,0.8,0,0,0,.151-0.516V28.222a0.814,0.814,0,0,0-.154-0.522,0.55,0.55,0,0,0-.467-0.213,0.584,0.584,0,0,0-.481.213,0.836,0.836,0,0,0-.18.522V28.7a0.813,0.813,0,0,0,.183.516,0.583,0.583,0,0,0,.482.207A0.559,0.559,0,0,0,726.416,29.213Zm3.636,3.37a0.577,0.577,0,0,0-.48.213,0.817,0.817,0,0,0-.173.516v0.475a0.76,0.76,0,0,0,.2.513,0.6,0.6,0,0,0,.465.216,0.554,0.554,0,0,0,.494-0.191,0.956,0.956,0,0,0,.126-0.537V33.312a0.8,0.8,0,0,0-.163-0.516A0.556,0.556,0,0,0,730.052,32.583Z" transform="translate(-718 -21)"/>
</svg>
