<svg xmlns="http://www.w3.org/2000/svg" width="26" height="23" viewBox="0 0 26 23">
  <defs>
    <style>
      .cls-1 {
        fill: #e40613;
        fill-rule: evenodd;
      }
    </style>
  </defs>
  <path id="Forma_1" data-name="Forma 1" class="cls-1" d="M1031.34,24.75a5.923,5.923,0,0,0,.18-3.977,5.8,5.8,0,0,0-1-1.933,5.094,5.094,0,0,0-1.59-1.384,3.429,3.429,0,0,0-1.63-.444,1.644,1.644,0,0,0-.5.079l-0.17.056a1.281,1.281,0,0,1,.04.168c0.02,0.1.02,0.282,0.04,0.446a9.942,9.942,0,0,1-.06,1.276,8.135,8.135,0,0,0,.28,3.122,7.234,7.234,0,0,0,.69,1.572,8.008,8.008,0,0,0,.98,1.356,18.759,18.759,0,0,0,1.29,1.368,13,13,0,0,0,.13-1.411,8.371,8.371,0,0,0,0-1c-0.01-.332-0.07-0.652-0.09-0.966-0.06-.31-0.14-0.605-0.2-0.888-0.1-.273-0.19-0.53-0.28-0.767-0.12-.223-0.23-0.427-0.33-0.609a2.356,2.356,0,0,0-.31-0.433c-0.19-.233-0.29-0.367-0.29-0.367s0.11,0.125.32,0.345a2.684,2.684,0,0,1,.34.416c0.12,0.177.25,0.377,0.39,0.594,0.1,0.237.22,0.492,0.34,0.764,0.08,0.283.18,0.582,0.26,0.9,0.06,0.319.14,0.648,0.17,0.986s0.08,0.684.08,1.031a11.316,11.316,0,0,1-.01,1.166c0.03-.034.07-0.061,0.1-0.1A5.156,5.156,0,0,0,1031.34,24.75Zm-3.09,2.872c0.05,0.085.09,0.166,0.14,0.249a7.332,7.332,0,0,0-5.56,4.832l0.17,0.022a7.794,7.794,0,0,1,1.11.153,0.872,0.872,0,0,1,.17-0.464,2.119,2.119,0,0,1,1.75-.834,11.675,11.675,0,0,1,3.41.388,2.781,2.781,0,0,0,1.88-.106,5.018,5.018,0,0,1,4.77.183c0.16,0.1.33,0.216,0.5,0.33a7.34,7.34,0,0,0-5.64-4.54c0.08-.122.14-0.244,0.22-0.371a1.422,1.422,0,0,0,.2-0.5,0.609,0.609,0,0,1-.01-0.134c-0.26.329-.5,0.659-0.71,0.974-0.12-.016-0.26-0.021-0.39-0.03a14.844,14.844,0,0,0,.15-1.566,1.025,1.025,0,0,1-.12.126,1.9,1.9,0,0,0-.24.668c-0.05.259-.1,0.5-0.15,0.744-0.04,0-.09-0.01-0.13-0.01a7.457,7.457,0,0,0-1.11.085q-0.27-.41-0.6-0.833a0.609,0.609,0,0,1-.01.134A1.248,1.248,0,0,0,1028.25,27.622Zm4.24-2.009c0.19-.178.41-0.322,0.59-0.478,0.21-.139.41-0.259,0.6-0.38,0.21-.094.4-0.182,0.58-0.264,0.19-.054.36-0.105,0.52-0.15a1.908,1.908,0,0,1,.4-0.065l0.36-.038-0.36.063a2.146,2.146,0,0,0-.39.093c-0.15.054-.31,0.116-0.49,0.182-0.17.092-.35,0.193-0.54,0.3-0.18.131-.37,0.261-0.56,0.41-0.17.165-.37,0.317-0.53,0.5s-0.35.364-.51,0.57c-0.23.279-.43,0.576-0.63,0.871,0.26,0.012,1.07-.1,1.42-0.138a6.256,6.256,0,0,0,1.24-.287,5.655,5.655,0,0,0,1.18-.553,6.063,6.063,0,0,0,1.72-1.638,7.137,7.137,0,0,1,.6-0.759,2.829,2.829,0,0,1,.25-0.233c0.07-.05.1-0.077,0.1-0.077a1.067,1.067,0,0,0-.07-0.116,1.091,1.091,0,0,0-.24-0.292,2.594,2.594,0,0,0-1.15-.556,3.914,3.914,0,0,0-1.6,0,4.4,4.4,0,0,0-1.53.608,4.479,4.479,0,0,0-1.19,1.066,4.4,4.4,0,0,0-.7,1.288,4.063,4.063,0,0,0-.21,1.188c0,0.035.01,0.07,0.01,0.1,0.18-.227.37-0.451,0.58-0.669C1032.11,25.964,1032.31,25.791,1032.49,25.613Zm-10.76-1.6a8.784,8.784,0,0,1,.6.759,6.06,6.06,0,0,0,1.72,1.638,5.452,5.452,0,0,0,1.18.554,6.137,6.137,0,0,0,1.23.287c0.36,0.042,1.17.15,1.42,0.137a7.716,7.716,0,0,0-.63-0.87,6.942,6.942,0,0,0-.5-0.57c-0.17-.186-0.36-0.339-0.54-0.5-0.18-.149-0.37-0.28-0.55-0.41-0.19-.106-0.38-0.206-0.54-0.3-0.18-.066-0.35-0.127-0.49-0.182a2.023,2.023,0,0,0-.4-0.092c-0.22-.041-0.35-0.063-0.35-0.063l0.36,0.037a1.955,1.955,0,0,1,.4.065c0.15,0.044.33,0.095,0.51,0.15,0.18,0.082.38,0.171,0.58,0.264,0.19,0.119.4,0.241,0.6,0.38,0.19,0.156.4,0.3,0.59,0.478a7.149,7.149,0,0,1,.56.548,8.851,8.851,0,0,1,.58.669,0.364,0.364,0,0,0,0-.1,3.72,3.72,0,0,0-.2-1.188,4.4,4.4,0,0,0-.7-1.288,4.642,4.642,0,0,0-1.19-1.066,4.414,4.414,0,0,0-1.53-.607,3.885,3.885,0,0,0-1.6,0,2.534,2.534,0,0,0-1.15.556,1.433,1.433,0,0,0-.25.292,1.018,1.018,0,0,1-.07.115s0.04,0.026.11,0.078S1021.64,23.928,1021.73,24.014Zm17.89,12.115a15.517,15.517,0,0,0-4.15-3.663,4.265,4.265,0,0,0-4.03-.11,3.585,3.585,0,0,1-2.42.128,10.886,10.886,0,0,0-3.17-.353,1.3,1.3,0,0,0-1.11.518c-0.16.2,1.09,1.035,2.17,1.035-0.2.4-3.67-.442-4.13-0.407l-2.62-.335c-0.94-.076-0.93-0.426-1.85.09a0.242,0.242,0,0,1-.12.017,1.17,1.17,0,0,0-1.08.468,0.544,0.544,0,0,0,.46.91,17.9,17.9,0,0,0,3.14,1.08c1.13,0.279,2.23.618,3.36,0.873a4.864,4.864,0,0,1,1.36.421,5.223,5.223,0,0,0,2.87.608c1.16-.052,2.32-0.006,3.49-0.013a4.972,4.972,0,0,1,4.64,2.6l6.56-.013C1041.56,38.305,1040.92,37.9,1039.62,36.129Z" transform="translate(-1017 -17)"/>
</svg>
