<svg xmlns="http://www.w3.org/2000/svg" width="16.156" height="19.906" viewBox="0 0 16.156 19.906">
  <defs>
    <style>
      .cls-1 {
        fill-rule: evenodd;
      }
    </style>
  </defs>
  <path id="Forma_1" data-name="Forma 1" class="cls-1" d="M599.225,24.7l0.6-.957a0.911,0.911,0,0,0,.055-0.106,0.793,0.793,0,0,0,.036-0.091,0.737,0.737,0,0,0,.02-0.08,0.942,0.942,0,0,0,.018-0.129c0-.023,0-0.047,0-0.07a0.853,0.853,0,0,0-.242-0.576l-0.011-.011h0a0.715,0.715,0,0,0-.057-0.053l-0.021-.016c-0.014-.011-0.027-0.022-0.042-0.031l-0.025-.017-0.04-.024-0.028-.015-0.041-.02-0.029-.012-0.044-.016-0.028-.009-0.049-.012-0.024-.006c-0.024,0-.049-0.008-0.074-0.011H599.19l-0.066,0h0l-0.053,0H599.06c-0.022,0-.043,0-0.065.008l-0.02,0-0.044.009-0.024.006-0.04.012-0.025.009L598.8,22.5l-0.023.01-0.041.021-0.02.01c-0.02.011-.039,0.023-0.058,0.036l-0.477.319a8.979,8.979,0,0,0-7.285-3.727v0.017c-2.874.008-5.3,2.109-5.3,4.691,0,0.026.007,0.05,0.009,0.075s0,0.05,0,.075a4.009,4.009,0,0,0,.861,2.53,2.932,2.932,0,0,0,2.293,1.139h0.019a2.331,2.331,0,0,0,2.527-2.136,0.98,0.98,0,0,0-1.959-.051,0.826,0.826,0,0,1-.568.183h-0.019a1.491,1.491,0,0,1-1.191-1.666c0-.026,0-0.05,0-0.075s0-.05,0-0.075c0-1.482,1.509-2.687,3.363-2.687a0.954,0.954,0,0,0,.16-0.014,7.058,7.058,0,0,1,5.46,2.84l-1.23.841-4.44,3.034h0l-3.037,4.45a1.491,1.491,0,0,0-.2-0.014,3.194,3.194,0,0,0-2.137,1.173c-1.621,1.658-1.672,4.923-1.674,5.062a0.5,0.5,0,0,0,.143.356,0.479,0.479,0,0,0,.347.14h0a8.669,8.669,0,0,0,4.539-1.336h2.063a9.178,9.178,0,0,0,9.056-9.276A9.429,9.429,0,0,0,599.225,24.7Zm-8.2,4.742,2.19,2.24-2.948,2.005L589,32.4Zm-0.084,6.273h-0.579A1.7,1.7,0,0,0,590.4,34.8l4.354-2.961,3.115-4.969a7.409,7.409,0,0,1,.168,1.573A7.194,7.194,0,0,1,590.937,35.714Z" transform="translate(-583.844 -19.156)"/>
</svg>
