<svg xmlns="http://www.w3.org/2000/svg" width="16" height="19.031" viewBox="0 0 16 19.031">
  <defs>
    <style>
      .cls-1 {
        fill-rule: evenodd;
      }
    </style>
  </defs>
  <path id="Forma_1" data-name="Forma 1" class="cls-1" d="M881.878,24.815a3.543,3.543,0,0,0-1.052-2.556,4.4,4.4,0,0,0-2.752-1.275,3.868,3.868,0,0,0-4.4,3.308c-0.007.083-.006,0.165-0.006,0.247l-1.289-.043-2.386,13.791,13.845,1.724-0.67-15.152Zm-2.3-2.565a0.336,0.336,0,0,1,.472-0.13,3.785,3.785,0,0,1,1.1,1.34c0.2,0.415-.392.782-0.6,0.366a3.033,3.033,0,0,0-.854-1.08A0.38,0.38,0,0,1,879.576,22.249Zm-4.187,2.2a2.117,2.117,0,0,1,2.263-1.67q0.135,0,.273.012a2.706,2.706,0,0,1,1.7.77,1.725,1.725,0,0,1,.532,1.2l-4.769-.16A1.466,1.466,0,0,1,875.389,24.448Zm-1.26,8.753a1.273,1.273,0,0,1-.895.215,1.407,1.407,0,0,1-.894-0.336,0.925,0.925,0,0,1-.284-0.772l0.584,0.041a0.53,0.53,0,0,0,.6.545,1.066,1.066,0,0,0,.362-0.025,0.352,0.352,0,0,0,.285-0.336,0.266,0.266,0,0,0-.114-0.243,1.371,1.371,0,0,0-.4-0.172l-0.313-.094a1.967,1.967,0,0,1-.628-0.279,0.759,0.759,0,0,1-.254-0.681,0.887,0.887,0,0,1,.332-0.661,1.2,1.2,0,0,1,.869-0.212,1.28,1.28,0,0,1,.784.311,0.927,0.927,0,0,1,.3.766l-0.589-.041a0.442,0.442,0,0,0-.212-0.407,0.785,0.785,0,0,0-.36-0.1,0.673,0.673,0,0,0-.394.073,0.316,0.316,0,0,0-.162.268,0.267,0.267,0,0,0,.127.255,1.723,1.723,0,0,0,.382.153l0.506,0.162a1.29,1.29,0,0,1,.493.257,0.763,0.763,0,0,1,.223.642A0.886,0.886,0,0,1,874.129,33.2Zm2.632,0.382-0.154-.641-1.08-.075-0.238.614-0.641-.045,1.239-2.98L876.58,30.5l0.845,3.125Zm3.114,0.216-2.077-.144L877.99,30.6l0.613,0.043-0.158,2.5,1.464,0.1Zm2.737-2.332-1.551-.108-0.041.648,1.424,0.1-0.033.53-1.424-.1-0.05.785,1.624,0.113-0.035.549L880.3,33.83l0.193-3.053,2.15,0.149Zm-6.885.885,0.751,0.052-0.295-1.226ZM886,36.711l-2.555-11.823L884.3,39.466l1.6-2.4-1.2-.236,0.064-.357Z" transform="translate(-870 -20.969)"/>
</svg>
