<svg xmlns="http://www.w3.org/2000/svg" width="19.97" height="21" viewBox="0 0 19.97 21">
  <defs>
    <style>
      .cls-1 {
        fill-rule: evenodd;
      }
    </style>
  </defs>
  <path class="cls-1" d="M1352.84,36.456a1.057,1.057,0,0,0-1.65,0c-0.38.4-.77,0.8-1.15,1.213a0.222,0.222,0,0,1-.32.061c-0.25-.144-0.51-0.258-0.75-0.415a12.1,12.1,0,0,1-2.89-2.763,6.831,6.831,0,0,1-1.04-1.742,0.259,0.259,0,0,1,.06-0.319c0.39-.393.76-0.794,1.14-1.2a1.191,1.191,0,0,0,0-1.777c-0.3-.319-0.6-0.637-0.91-0.952l-0.93-.982a1.07,1.07,0,0,0-1.66,0c-0.38.4-.76,0.816-1.15,1.209a1.968,1.968,0,0,0-.59,1.336,5.919,5.919,0,0,0,.41,2.431,15.058,15.058,0,0,0,2.5,4.365,15.507,15.507,0,0,0,5.11,4.2,7.134,7.134,0,0,0,2.84.864,2.03,2.03,0,0,0,1.78-.711c0.33-.389.7-0.742,1.06-1.113a1.2,1.2,0,0,0,.01-1.764C1354.08,37.752,1353.46,37.106,1352.84,36.456Zm6.3-13.518a6.089,6.089,0,0,0-8.91,0,6.855,6.855,0,0,0-.26,9.057l0.06,0.057a3.119,3.119,0,0,1-1.3,1.541,0.263,0.263,0,0,0,.07.485,3.447,3.447,0,0,0,2.68-.768l0.01,0.013a6.082,6.082,0,0,0,7.65-1.03A6.851,6.851,0,0,0,1359.14,22.938Zm-4.18.594a1.087,1.087,0,0,1-.01,2.169,1.071,1.071,0,0,1-1.03-1.1A1.054,1.054,0,0,1,1354.96,23.531Zm1.45,7.268a0.538,0.538,0,0,1-.14.258,1.853,1.853,0,0,1-1.35.642,4.33,4.33,0,0,1-.75-0.044,1.14,1.14,0,0,1-.86-1.165c0.05-.388.11-0.777,0.17-1.166,0.11-.672.23-1.349,0.34-2.021a0.577,0.577,0,0,0,.01-0.131,0.341,0.341,0,0,0-.35-0.419,1.87,1.87,0,0,1-.34-0.065,0.252,0.252,0,0,1,.05-0.493,1.109,1.109,0,0,1,.24-0.017h1.94a0.347,0.347,0,0,1,.39.371,3.345,3.345,0,0,1-.06.628c-0.13.768-.27,1.536-0.4,2.309a6.731,6.731,0,0,0-.12.764,0.93,0.93,0,0,0,.03.371,0.272,0.272,0,0,0,.31.231,1.8,1.8,0,0,0,.38-0.113c0.1-.039.19-0.113,0.29-0.153A0.164,0.164,0,0,1,1356.41,30.8Z" transform="translate(-1341 -21)"/>
</svg>
